####
#
# OBJ File Generated by Meshlab
#
####
# Object forearm_collider.obj
#
# Vertices: 122
# Faces: 239
#
####
vn 2.962605 4.495599 -2.832814
v 0.020876 0.031771 -0.019687
vn 3.098172 3.158677 -4.208820
v 0.021414 0.022251 -0.029519
vn 3.464658 4.897037 -1.149622
v 0.024047 0.034347 -0.008451
vn 1.315701 2.970616 -5.186579
v 0.009467 0.020950 -0.036051
vn 2.245305 2.073303 -5.319645
v 0.015321 0.014534 -0.037082
vn 0.177947 0.292481 -6.073709
v 0.000759 0.002774 -0.042740
vn -3.252975 4.174257 -2.974778
v -0.022801 0.029741 -0.020757
vn -3.184425 5.120819 -0.866046
v -0.022487 0.035835 -0.006214
vn -2.343379 5.371036 -1.836149
v -0.016587 0.037105 -0.012970
vn -0.375811 3.623865 -4.837008
v -0.002377 0.025315 -0.034477
vn -1.957201 3.794549 -4.366420
v -0.014195 0.026320 -0.030501
vn -0.355460 4.953222 -3.537301
v -0.002593 0.035166 -0.024206
vn 0.533451 6.072400 -0.780586
v 0.003068 0.042052 -0.006451
vn 1.973675 5.550742 -1.838055
v 0.014046 0.038437 -0.011810
vn 2.151402 5.712533 -0.599593
v 0.015322 0.039641 -0.004438
vn -0.679284 5.916753 -1.618560
v -0.004108 0.041240 -0.009988
vn 0.498254 5.707631 -2.244113
v 0.003519 0.039594 -0.015489
vn -1.513438 5.006253 -3.102740
v -0.010751 0.035290 -0.021809
vn 1.625280 4.068173 -4.286992
v 0.011649 0.027893 -0.030117
vn 1.184281 4.944312 -3.376783
v 0.007993 0.034968 -0.023298
vn 1.661497 1.002002 -5.815658
v 0.012299 0.006947 -0.040272
vn -0.048025 2.060124 -5.736923
v -0.000368 0.014156 -0.040374
vn -1.235004 0.693796 -5.975565
v -0.007936 0.005044 -0.041617
vn -1.994752 2.006360 -5.397674
v -0.014318 0.014021 -0.037762
vn -2.926205 2.870427 -4.561878
v -0.019461 0.019869 -0.032332
vn -1.308186 5.954701 -0.596627
v -0.008270 0.041631 -0.004572
vn -1.882568 4.841897 0.503287
v -0.017391 0.041507 0.163484
vn -2.231256 3.251403 0.556808
v -0.017923 0.040787 0.164021
vn -3.556733 4.870393 0.232049
v -0.028082 0.037135 0.144636
vn -3.094654 5.280375 0.725780
v -0.018078 0.040141 0.169923
vn 3.633462 4.839969 0.278365
v 0.027835 0.036761 0.147988
vn 1.706564 5.902864 0.275231
v 0.014866 0.042263 0.157601
vn -0.060093 6.202634 0.250657
v -0.000564 0.043758 0.164462
vn 5.140467 2.810508 0.087271
v 0.034752 0.030271 0.131492
vn -5.215188 2.784529 0.133811
v -0.035248 0.030055 0.131959
vn -5.749035 -2.031528 0.056933
v -0.040715 -0.030562 0.064586
vn -1.259083 -6.078842 0.515300
v -0.014349 -0.051127 0.088500
vn -4.523530 -4.080537 0.272099
v -0.033511 -0.041848 0.077578
vn -6.212382 0.678673 0.123429
v -0.043307 -0.002103 0.068691
vn 0.006590 -6.235971 0.350839
v -0.000074 -0.055610 0.052993
vn -1.288060 -6.008218 -0.175017
v -0.009301 -0.055742 0.018582
vn 0.116511 -5.954495 -1.091412
v 0.000129 -0.055117 -0.005108
vn -0.907427 -2.846710 -4.673534
v -0.011229 -0.039081 -0.037631
vn -1.690886 -5.353740 -2.271210
v -0.012493 -0.047428 -0.024374
vn -2.096887 -5.603544 -1.175018
v -0.013248 -0.052098 -0.008054
vn -1.227435 -6.079218 0.359498
v -0.008432 -0.054721 0.056630
vn -3.241957 -5.181290 -0.103486
v -0.022858 -0.050616 0.027959
vn -2.951161 -4.407259 -2.744171
v -0.023059 -0.039589 -0.030569
vn -3.961756 -4.564178 -0.980040
v -0.027514 -0.043670 -0.007174
vn -2.934347 -5.377335 0.521695
v -0.024539 -0.047537 0.092011
vn -5.164129 -3.185584 -0.360828
v -0.036454 -0.036352 0.011790
vn -5.992417 -0.930806 -0.764197
v -0.041666 -0.015798 -0.013251
vn -5.721076 -0.229570 -1.981167
v -0.040058 -0.013106 -0.022165
vn -4.303317 1.673232 -3.601610
v -0.034028 0.006759 -0.028459
vn -4.505165 3.031641 -2.573719
v -0.033629 0.020943 -0.017763
vn -5.106764 -2.476183 -1.828678
v -0.035644 -0.028652 -0.024058
vn -4.239633 -3.517441 -2.510179
v -0.028886 -0.034981 -0.029089
vn -0.211193 -3.169762 -4.686846
v -0.003427 -0.040676 -0.037384
vn 0.913766 -2.878612 -4.598419
v 0.011236 -0.039192 -0.037610
vn 3.006837 -1.161476 -4.644094
v 0.029511 -0.024600 -0.036243
vn 4.741399 -2.768582 -2.025063
v 0.033583 -0.031108 -0.026426
vn 4.160679 1.251565 -3.811834
v 0.034131 0.000667 -0.030901
vn 6.077141 0.628441 -0.298097
v 0.043572 0.002704 0.000921
vn -5.634969 1.771296 -1.074699
v -0.040891 0.012637 -0.007851
vn -6.129233 0.612304 -0.231271
v -0.043220 0.004345 0.003654
vn -0.006164 -5.404418 -2.881758
v 0.000003 -0.047061 -0.028493
vn 1.180037 -5.991623 -0.194376
v 0.008361 -0.056109 0.017689
vn 1.532102 -5.418056 -2.300794
v 0.011560 -0.048094 -0.023433
vn 1.381703 -6.038118 0.318422
v 0.010048 -0.054544 0.055778
vn 3.374404 -5.104491 -0.198940
v 0.023816 -0.049829 0.022016
vn 2.582909 -5.403337 -1.157071
v 0.018061 -0.049696 -0.010179
vn 3.038506 -4.341743 -2.861767
v 0.022788 -0.039115 -0.030842
vn 4.525260 -4.036633 0.282014
v 0.033862 -0.041625 0.074746
vn 2.561305 -5.498608 0.536976
v 0.022584 -0.048662 0.091010
vn 4.088376 -4.467124 -1.180231
v 0.027231 -0.042398 -0.013197
vn 5.149172 -3.195034 -0.448068
v 0.035913 -0.036896 0.011066
vn 5.690103 -2.182575 -0.037961
v 0.040381 -0.031721 0.055870
vn 5.772529 -0.564813 -1.348686
v 0.041776 -0.012397 -0.016677
vn 4.601816 3.782116 -0.956086
v 0.033529 0.026146 -0.007745
vn 4.455369 2.979330 -2.672554
v 0.033628 0.020669 -0.018334
vn 5.574091 1.906411 -1.239806
v 0.040085 0.013609 -0.009955
vn -3.721860 0.032932 -4.093195
v -0.033868 -0.013505 -0.034565
vn 2.266757 -2.089015 -4.671349
v 0.023570 -0.032484 -0.036954
vn 3.940607 -0.190430 -3.889683
v 0.034077 -0.016201 -0.034096
vn -3.174160 -1.145293 -4.489601
v -0.029883 -0.024269 -0.036012
vn -2.178915 -2.062525 -4.753763
v -0.022997 -0.033106 -0.037039
vn -4.554208 3.840770 -0.972390
v -0.033200 0.026607 -0.007434
vn 6.159568 -0.446857 0.242985
v 0.042639 -0.017527 0.079702
vn -6.237736 -0.292040 0.185167
v -0.043387 -0.008101 0.073019
vn -1.004966 5.734617 1.212036
v -0.000776 0.036467 0.258466
vn 1.525229 5.872397 0.832588
v 0.004411 0.036152 0.257594
vn 3.249987 -1.010772 4.114580
v 0.020686 -0.013203 0.288557
vn -3.005791 -2.217808 3.789546
v -0.022514 -0.011153 0.286591
vn -2.689854 2.462313 4.590711
v -0.022266 0.012233 0.285464
vn 3.102093 1.250008 4.666779
v 0.020991 0.013540 0.287244
vn -0.942521 -3.040211 4.840217
v 0.000270 -0.024572 0.288275
vn -3.924215 0.663430 2.952980
v -0.031698 0.001763 0.283633
vn -3.886495 -0.964088 2.903495
v -0.031649 -0.002005 0.283595
vn -6.258828 -0.133406 0.492890
v -0.031687 -0.001480 0.283315
vn -4.702189 2.589040 1.684661
v -0.030425 0.013575 0.275374
vn -3.406087 4.595822 1.504116
v -0.022992 0.024342 0.268207
vn -2.132238 3.866235 3.764509
v -0.014220 0.021157 0.283489
vn 4.087954 -0.168919 3.784234
v 0.025137 -0.000766 0.286088
vn -0.999176 3.743290 4.029480
v -0.001133 0.024963 0.285661
vn -2.590608 -3.251796 3.895148
v -0.014318 -0.020792 0.285458
vn 5.692926 -1.611139 0.992557
v 0.032930 -0.015702 0.256793
vn 4.578445 -3.735146 1.071459
v 0.029473 -0.021400 0.259145
vn 1.365669 -3.284063 3.192126
v 0.014177 -0.027598 0.287189
vn -1.486133 -5.427487 1.758675
v -0.003842 -0.034109 0.273195
vn 3.100349 -2.845043 2.757725
v 0.017893 -0.025703 0.286346
vn -2.990589 -5.036673 1.570510
v -0.012371 -0.031503 0.268869
vn 0.261727 -5.116158 2.036766
v 0.003859 -0.033623 0.278552
vn -4.431739 -3.826229 1.267082
v -0.029786 -0.020919 0.258815
vn -5.754471 -1.742733 0.717256
v -0.032634 -0.016300 0.256843
vn 2.100483 3.142563 3.134899
v 0.016662 0.026800 0.284631
vn 0.919465 4.423812 2.651197
v 0.013488 0.028720 0.283529
vn 5.955303 -0.026157 1.264610
v 0.032942 0.003816 0.267049
vn 5.583697 1.414601 1.466366
v 0.031478 0.012017 0.270556
vn 4.520456 2.907207 1.863533
v 0.026304 0.020537 0.276706
vn -0.698592 -0.804803 5.939167
v -0.003931 -0.005763 0.293024
vn -0.871155 1.054780 5.804826
v -0.004845 0.005374 0.292954
vn 0.942416 0.439381 5.964828
v 0.006522 0.002517 0.292934
# 122 vertices, 0 vertices normals

f 9//9 26//26 16//16
f 4//4 5//5 22//22
f 113//113 50//50 111//111
f 23//23 22//22 6//6
f 50//50 38//38 47//47
f 64//64 35//35 87//87
f 78//78 77//77 76//76
f 75//75 71//71 72//72
f 67//67 70//70 69//69
f 76//76 61//61 78//78
f 36//36 52//52 51//51
f 45//45 47//47 49//49
f 45//45 41//41 47//47
f 74//74 73//73 107//107
f 75//75 70//70 71//71
f 83//83 72//72 59//59
f 91//91 31//31 32//32
f 8//8 26//26 9//9
f 7//7 55//55 87//87
f 27//27 33//33 26//26
f 54//54 24//24 82//82
f 69//69 40//40 67//67
f 2//2 80//80 62//62
f 56//56 49//49 51//51
f 115//115 116//116 104//104
f 45//45 42//42 41//41
f 113//113 98//98 114//114
f 87//87 35//35 29//29
f 122//122 115//115 121//121
f 24//24 11//11 10//10
f 103//103 118//118 119//119
f 87//87 8//8 7//7
f 6//6 22//22 21//21
f 1//1 80//80 2//2
f 20//20 1//1 19//19
f 117//117 118//118 103//103
f 14//14 17//17 13//13
f 114//114 99//99 89//89
f 105//105 113//113 111//111
f 81//81 79//79 34//34
f 14//14 15//15 3//3
f 68//68 42//42 66//66
f 96//96 108//108 120//120
f 38//38 36//36 51//51
f 42//42 45//45 44//44
f 5//5 2//2 62//62
f 111//111 109//109 105//105
f 77//77 88//88 106//106
f 50//50 46//46 37//37
f 75//75 61//61 76//76
f 120//120 122//122 121//121
f 121//121 97//97 98//98
f 113//113 38//38 50//50
f 96//96 105//105 112//112
f 65//65 35//35 64//64
f 97//97 99//99 98//98
f 63//63 77//77 78//78
f 33//33 13//13 26//26
f 24//24 22//22 23//23
f 53//53 56//56 52//52
f 84//84 78//78 61//61
f 110//110 107//107 106//106
f 40//40 112//112 109//109
f 81//81 78//78 62//62
f 75//75 72//72 61//61
f 51//51 52//52 56//56
f 73//73 106//106 107//107
f 57//57 85//85 86//86
f 6//6 83//83 59//59
f 85//85 82//82 23//23
f 110//110 74//74 107//107
f 58//58 44//44 43//43
f 72//72 68//68 59//59
f 86//86 43//43 48//48
f 118//118 34//34 119//119
f 43//43 44//44 48//48
f 16//16 18//18 9//9
f 121//121 115//115 104//104
f 10//10 4//4 22//22
f 95//95 103//103 119//119
f 17//17 16//16 13//13
f 10//10 22//22 24//24
f 11//11 24//24 25//25
f 21//21 22//22 5//5
f 74//74 70//70 73//73
f 25//25 7//7 11//11
f 115//115 122//122 95//95
f 116//116 90//90 104//104
f 47//47 51//51 49//49
f 41//41 46//46 47//47
f 21//21 62//62 84//84
f 18//18 16//16 12//12
f 16//16 17//17 12//12
f 69//69 70//70 74//74
f 100//100 97//97 94//94
f 82//82 24//24 23//23
f 29//29 8//8 87//87
f 115//115 91//91 116//116
f 70//70 67//67 71//71
f 102//102 100//100 94//94
f 102//102 104//104 101//101
f 49//49 44//44 45//45
f 19//19 10//10 20//20
f 20//20 10//10 12//12
f 86//86 48//48 57//57
f 112//112 108//108 96//96
f 48//48 49//49 57//57
f 30//30 90//90 27//27
f 34//34 117//117 63//63
f 119//119 31//31 115//115
f 102//102 121//121 104//104
f 10//10 18//18 12//12
f 18//18 7//7 9//9
f 60//60 6//6 21//21
f 78//78 81//81 63//63
f 84//84 60//60 21//21
f 15//15 32//32 31//31
f 43//43 59//59 58//58
f 76//76 70//70 75//75
f 83//83 60//60 61//61
f 104//104 90//90 101//101
f 64//64 87//87 55//55
f 33//33 91//91 32//32
f 54//54 53//53 64//64
f 12//12 17//17 20//20
f 119//119 115//115 95//95
f 42//42 71//71 67//67
f 72//72 83//83 61//61
f 66//66 42//42 44//44
f 2//2 4//4 19//19
f 82//82 56//56 53//53
f 112//112 105//105 109//109
f 119//119 34//34 31//31
f 55//55 54//54 64//64
f 88//88 117//117 106//106
f 84//84 62//62 78//78
f 38//38 114//114 36//36
f 15//15 31//31 3//3
f 110//110 112//112 74//74
f 18//18 10//10 11//11
f 112//112 69//69 74//74
f 79//79 1//1 3//3
f 80//80 79//79 81//81
f 29//29 100//100 101//101
f 55//55 25//25 54//54
f 52//52 64//64 53//53
f 1//1 14//14 3//3
f 4//4 2//2 5//5
f 14//14 1//1 20//20
f 20//20 17//17 14//14
f 10//10 19//19 4//4
f 57//57 56//56 85//85
f 106//106 103//103 110//110
f 11//11 7//7 18//18
f 29//29 30//30 28//28
f 60//60 84//84 61//61
f 40//40 37//37 46//46
f 91//91 90//90 116//116
f 71//71 68//68 72//72
f 26//26 13//13 16//16
f 122//122 103//103 95//95
f 98//98 105//105 93//93
f 66//66 59//59 68//68
f 14//14 13//13 15//15
f 34//34 3//3 31//31
f 73//73 76//76 77//77
f 121//121 93//93 120//120
f 32//32 13//13 33//33
f 7//7 8//8 9//9
f 89//89 97//97 39//39
f 2//2 19//19 1//1
f 108//108 110//110 92//92
f 40//40 46//46 41//41
f 120//120 105//105 96//96
f 110//110 103//103 92//92
f 97//97 121//121 94//94
f 27//27 90//90 33//33
f 63//63 81//81 34//34
f 62//62 80//80 81//81
f 6//6 43//43 86//86
f 35//35 65//65 39//39
f 30//30 101//101 90//90
f 58//58 66//66 44//44
f 54//54 25//25 24//24
f 69//69 112//112 40//40
f 56//56 57//57 49//49
f 52//52 36//36 65//65
f 36//36 114//114 89//89
f 114//114 98//98 99//99
f 89//89 65//65 36//36
f 109//109 111//111 37//37
f 111//111 50//50 37//37
f 50//50 47//47 46//46
f 63//63 88//88 77//77
f 73//73 77//77 106//106
f 47//47 38//38 51//51
f 21//21 5//5 62//62
f 115//115 31//31 91//91
f 102//102 101//101 100//100
f 49//49 48//48 44//44
f 34//34 118//118 117//117
f 102//102 94//94 121//121
f 60//60 83//83 6//6
f 43//43 6//6 59//59
f 76//76 73//73 70//70
f 33//33 90//90 91//91
f 54//54 82//82 53//53
f 42//42 68//68 71//71
f 82//82 85//85 56//56
f 88//88 63//63 117//117
f 38//38 113//113 114//114
f 110//110 108//108 112//112
f 79//79 80//80 1//1
f 29//29 35//35 100//100
f 55//55 7//7 25//25
f 52//52 65//65 64//64
f 106//106 117//117 103//103
f 28//28 27//27 29//29
f 27//27 26//26 29//29
f 26//26 8//8 29//29
f 40//40 109//109 37//37
f 122//122 92//92 103//103
f 98//98 113//113 105//105
f 66//66 58//58 59//59
f 34//34 79//79 3//3
f 121//121 98//98 93//93
f 32//32 15//15 13//13
f 89//89 99//99 97//97
f 39//39 65//65 89//89
f 122//122 120//120 92//92
f 120//120 108//108 92//92
f 42//42 67//67 41//41
f 67//67 40//40 41//41
f 120//120 93//93 105//105
f 85//85 23//23 86//86
f 23//23 6//6 86//86
f 39//39 97//97 35//35
f 97//97 100//100 35//35
f 30//30 29//29 101//101
# 239 faces, 0 coords texture

# End of File
